<svg xmlns="http://www.w3.org/2000/svg" viewBox="0 0 512 512">
  <path
    d="M466.989 22.505l-33.758 466.989h45.011c18.567 0 33.758-15.191 33.758-33.758V22.505h-45.011z"
    fill="#aee6ff"
  />
  <path
    d="M135.033 144.136v223.727a61.669 61.669 0 01-28.132 6.763c-34.186 0-61.89-27.704-61.89-61.89V199.264c0-34.186 27.704-61.89 61.89-61.89 10.139 0 19.692 2.441 28.132 6.762z"
    fill="transparent"
  />
  <path
    d="M466.989 22.505v433.231c0 18.567-15.191 33.758-33.758 33.758h-264.44c-18.567 0-33.758-15.191-33.758-33.758v-39.857a106.93 106.93 0 01-28.132 3.758C47.959 419.637 0 371.678 0 312.736V199.264C0 140.311 47.959 92.363 106.901 92.363c9.734 0 19.163 1.305 28.132 3.758V22.505h331.956zM135.033 367.864V144.136c-8.44-4.321-17.993-6.763-28.132-6.763-34.186 0-61.89 27.704-61.89 61.89v113.473c0 34.186 27.704 61.89 61.89 61.89a61.68 61.68 0 0028.132-6.762z"
    fill="#d1f1ff"
  />
  <g fill="#aee6ff">
    <circle cx="413.887" cy="353.055" r="8.44" />
    <circle cx="380.129" cy="386.813" r="8.44" />
    <circle cx="233.843" cy="125.187" r="8.44" />
  </g>
</svg>